# xmcd
#
# Track frame offsets:
#	150
#	17440
#	39048
#	52297
#	78979
#	90460
#	110988
#	126520
#	146691
#	163869
#	177429
#	193208
#	209074
#	223238
#	237234
#	263930
#	278631
#	298240
#	310923
#	327532
#
# Disc length: 4589 seconds
#
# Revision: 0
# Processed by: cddbd v1.5.1PL0 Copyright (c) Steve Scherf et al.
# Submitted via: dBpowerAMP V4.0
#
DISCID=4411eb14
DTITLE=O Melhor do Forró - O Melhor do Forró
DYEAR=1900
DGENRE=Country
TTITLE0=Deixa eu Botar - Água de Cheiro
TTITLE1=Penerou - Arriba Saia
TTITLE2=Baby Dool - Calcinha Preta
TTITLE3=A Dança do Dedinho - Mastruz
TTITLE4=Forró do Bebum - Dj Maluco
TTITLE5=Celular - Robério
TTITLE6=E Tome Amor - Limão Com Mel
TTITLE7=A Vidado Viajante - Trio Forrozão
TTITLE8=Xote dos Milagres - Fala Mansa
TTITLE9=Paquera - Calypso
TTITLE10=Casado Também Namora - Frank Aguiar
TTITLE11=Louco Pra Te Amar - Wesley
TTITLE12=Quero Ver Tu Rebolar - Água de Cheiro
TTITLE13=Libera o Toím - Arriba Saia
TTITLE14=Eu Quero É Gozar A Vida - Calcinha Preta
TTITLE15=Assasina de Prazer - Mastruz
TTITLE16=Forró do Ã-HÃ - Dj Maluco
TTITLE17=Ela Me Faz Feliz - Robério
TTITLE18=Porque Não Vê - Limão Com Mel
TTITLE19=Xote Capixaba - Trio Forrozão
EXTD=O Melhor do Forró
EXTT0=
EXTT1=
EXTT2=
EXTT3=
EXTT4=
EXTT5=
EXTT6=
EXTT7=
EXTT8=
EXTT9=
EXTT10=
EXTT11=
EXTT12=
EXTT13=
EXTT14=
EXTT15=
EXTT16=
EXTT17=
EXTT18=
EXTT19=
PLAYORDER=
